# xmcd CD database file
#
# Track frame offsets:
#	150
#	16687
#	33631
#	50989
#	66364
#	80387
#	96035
#	112085
#	129940
#	152210
#
# Disc length: 2260 seconds
#
# Revision: 0
# Processed by: cddbd v1.5.2PL0 Copyright (c) Steve Scherf et al.
# Submitted via: CDex 1.70beta2
#
DISCID=8208d20a
DTITLE=Strung-Out Troubadours - Push and Pull
DYEAR=2009
DGENRE=Jazz
TTITLE0=Way, Way Kooler
TTITLE1=Why Baby
TTITLE2=Deeper Kind of Blue
TTITLE3=Only Time Will Tell
TTITLE4=52 Pickup
TTITLE5=Miracle of Love
TTITLE6=And The River Still Runs
TTITLE7=Declaration
TTITLE8=Red Hot
TTITLE9=Deeper Kind of Blue (p.s.)
EXTD=YEAR: 2009
EXTT0=
EXTT1=
EXTT2=
EXTT3=
EXTT4=
EXTT5=
EXTT6=
EXTT7=
EXTT8=
EXTT9=
PLAYORDER=
